<svg xmlns="http://www.w3.org/2000/svg" version="1.0" width="500.000000pt" height="500.000000pt" viewBox="0 0 500.000000 500.000000" preserveAspectRatio="xMidYMid meet">

<g transform="translate(0.000000,500.000000) scale(0.100000,-0.100000)" fill="#000000" stroke="none">
<path d="M3570 3916 c0 -2 7 -7 16 -10 8 -3 12 -2 9 4 -6 10 -25 14 -25 6z"/>
<path d="M3533 3763 c9 -2 25 -2 35 0 9 3 1 5 -18 5 -19 0 -27 -2 -17 -5z"/>
<path d="M3533 3553 c9 -2 25 -2 35 0 9 3 1 5 -18 5 -19 0 -27 -2 -17 -5z"/>
<path d="M3933 3553 c9 -2 25 -2 35 0 9 3 1 5 -18 5 -19 0 -27 -2 -17 -5z"/>
<path d="M2732 3425 c0 -16 2 -22 5 -12 2 9 2 23 0 30 -3 6 -5 -1 -5 -18z"/>
<path d="M4332 3415 c0 -16 2 -22 5 -12 2 9 2 23 0 30 -3 6 -5 -1 -5 -18z"/>
<path d="M2712 3140 c0 -19 2 -27 5 -17 2 9 2 25 0 35 -3 9 -5 1 -5 -18z"/>
<path d="M3808 3143 c7 -3 16 -2 19 1 4 3 -2 6 -13 5 -11 0 -14 -3 -6 -6z"/>
<path d="M3756 3128 c3 -5 10 -6 15 -3 13 9 11 12 -6 12 -8 0 -12 -4 -9 -9z"/>
<path d="M1638 2943 c7 -3 16 -2 19 1 4 3 -2 6 -13 5 -11 0 -14 -3 -6 -6z"/>
<path d="M1738 2943 c6 -2 18 -2 25 0 6 3 1 5 -13 5 -14 0 -19 -2 -12 -5z"/>
<path d="M1018 2923 c7 -3 16 -2 19 1 4 3 -2 6 -13 5 -11 0 -14 -3 -6 -6z"/>
<path d="M2624 2760 c0 -96 2 -136 3 -87 2 48 2 126 0 175 -1 48 -3 8 -3 -88z"/>
<path d="M2845 2485 c0 -247 1 -347 2 -222 2 126 2 328 0 450 -1 122 -2 20 -2 -228z"/>
<path d="M4291 2884 c0 -11 3 -14 6 -6 3 7 2 16 -1 19 -3 4 -6 -2 -5 -13z"/>
<path d="M868 2753 c17 -2 47 -2 65 0 17 2 3 4 -33 4 -36 0 -50 -2 -32 -4z"/>
<path d="M1658 2753 c7 -3 16 -2 19 1 4 3 -2 6 -13 5 -11 0 -14 -3 -6 -6z"/>
<path d="M1334 2495 c0 -66 1 -92 3 -57 2 34 2 88 0 120 -2 31 -3 3 -3 -63z"/>
<path d="M1554 2475 c0 -71 1 -99 3 -62 2 37 2 96 0 130 -2 34 -3 4 -3 -68z"/>
<path d="M1834 2480 c0 -69 1 -97 3 -62 2 34 2 90 0 125 -2 34 -3 6 -3 -63z"/>
<path d="M2623 2530 c0 -30 2 -43 4 -27 2 15 2 39 0 55 -2 15 -4 2 -4 -28z"/>
<path d="M2063 2490 c0 -47 2 -66 4 -42 2 23 2 61 0 85 -2 23 -4 4 -4 -43z"/>
<path d="M1169 2533 c-13 -16 -12 -17 4 -4 9 7 17 15 17 17 0 8 -8 3 -21 -13z"/>
<path d="M943 2403 c9 -2 23 -2 30 0 6 3 -1 5 -18 5 -16 0 -22 -2 -12 -5z"/>
<path d="M3542 2374 c9 -9 21 -15 27 -13 6 2 -2 10 -17 17 -25 11 -25 11 -10 -4z"/>
<path d="M888 2213 c18 -2 45 -2 60 0 15 2 0 4 -33 4 -33 0 -45 -2 -27 -4z"/>
<path d="M1678 2213 c7 -3 16 -2 19 1 4 3 -2 6 -13 5 -11 0 -14 -3 -6 -6z"/>
<path d="M1520 2060 c0 -5 5 -10 11 -10 5 0 7 5 4 10 -3 6 -8 10 -11 10 -2 0 -4 -4 -4 -10z"/>
<path d="M2392 1518 l3 -423 195 1 c217 0 275 11 346 63 50 36 76 88 82 164 7 92 -28 166 -95 200 l-31 17 38 37 c74 75 80 204 13 284 -15 18 -50 42 -78 55 -47 23 -61 24 -263 24 l-212 0 2 -422z m380 232 c26 -32 24 -94 -4 -120 -18 -17 -35 -20 -100 -20 l-78 0 0 86 0 87 82 -6 c69 -4 85 -9 100 -27z m17 -324 c43 -39 33 -122 -17 -146 -15 -7 -62 -15 -104 -18 l-78 -5 0 98 0 97 90 -4 c67 -3 94 -9 109 -22z"/>
<path d="M3747 1924 c-4 -4 -7 -47 -7 -95 l0 -88 -47 -3 -48 -3 0 -70 0 -70 48 -3 47 -3 0 -178 c0 -195 7 -229 56 -275 45 -41 183 -61 249 -36 25 10 26 12 23 82 l-3 73 -50 3 c-82 5 -85 12 -85 184 l0 148 65 0 65 0 0 75 0 75 -65 0 -64 0 -3 93 -3 92 -85 3 c-47 2 -89 0 -93 -4z"/>
<path d="M3263 1737 c-142 -53 -224 -216 -195 -387 30 -173 149 -268 325 -258 80 4 141 28 195 78 38 35 37 39 -29 91 l-37 29 -38 -25 c-50 -34 -138 -35 -179 -3 -23 18 -55 72 -55 93 0 3 90 5 200 5 l200 0 0 59 c0 191 -126 332 -293 330 -34 0 -76 -6 -94 -12z m148 -143 c17 -8 37 -30 45 -49 27 -64 26 -65 -96 -65 -78 0 -110 3 -110 12 0 6 9 30 20 53 29 59 84 79 141 49z"/>
</g>
</svg>
