<svg xmlns="http://www.w3.org/2000/svg" xmlns:xlink="http://www.w3.org/1999/xlink" id="svg" version="1.1" width="400" height="400" viewBox="0, 0, 400,400"><g id="svgg"><path id="path0" d="M191.195 245.020 C 191.093 245.288,191.055 260.537,191.110 278.906 L 191.211 312.305 203.711 312.423 C 221.095 312.589,226.957 311.865,232.593 308.861 C 244.442 302.546,244.864 283.189,233.274 277.681 L 231.207 276.698 232.803 275.593 C 244.428 267.536,239.950 248.986,225.486 245.287 C 221.793 244.342,191.544 244.106,191.195 245.020 M299.383 246.619 C 299.273 246.907,299.234 250.159,299.298 253.846 L 299.414 260.548 295.879 260.547 C 291.293 260.547,291.406 260.397,291.406 266.452 C 291.406 273.048,291.150 272.656,295.452 272.656 L 299.023 272.656 298.906 284.472 C 298.736 301.500,299.530 305.677,303.599 309.160 C 306.872 311.962,313.399 313.266,320.505 312.539 C 325.664 312.012,325.431 312.361,325.303 305.315 L 325.195 299.414 321.267 299.175 C 314.178 298.744,314.296 298.993,314.134 284.082 L 314.010 272.656 319.268 272.656 C 325.508 272.656,325.000 273.207,325.000 266.452 C 325.000 260.231,325.317 260.547,319.063 260.547 L 314.063 260.547 314.063 253.320 L 314.063 246.094 306.824 246.094 C 301.124 246.094,299.542 246.205,299.383 246.619 M220.290 258.804 C 223.352 260.597,224.342 264.552,222.584 267.969 C 221.145 270.767,219.741 271.262,212.793 271.423 L 207.031 271.556 207.031 264.637 L 207.031 257.718 213.007 257.878 C 218.048 258.014,219.187 258.158,220.290 258.804 M262.217 260.757 C 241.558 266.322,238.491 300.822,257.813 310.294 C 267.144 314.868,278.346 313.556,286.598 306.923 C 290.272 303.970,290.286 304.077,285.698 300.000 C 281.626 296.382,282.104 296.501,279.260 298.400 C 271.185 303.792,262.183 300.881,260.364 292.290 L 260.096 291.024 276.044 290.922 L 291.992 290.820 291.919 286.133 C 291.635 267.972,278.162 256.463,262.217 260.757 M272.175 272.089 C 275.195 273.351,277.734 277.633,277.734 281.465 C 277.734 281.561,273.757 281.641,268.895 281.641 L 260.056 281.641 260.319 279.997 C 261.371 273.422,266.761 269.827,272.175 272.089 M222.252 285.365 C 226.573 287.904,226.226 295.299,221.675 297.641 C 219.941 298.533,219.272 298.624,213.410 298.766 L 207.031 298.920 207.031 291.713 C 207.031 287.749,207.104 284.432,207.193 284.342 C 207.799 283.731,220.996 284.627,222.252 285.365 " stroke="none" fill="#040404" fill-rule="evenodd"/><path id="path1" d="M275.000 77.623 C 273.389 78.384,271.982 79.125,271.875 79.269 C 271.768 79.414,270.847 79.845,269.828 80.227 C 268.810 80.608,267.894 81.055,267.793 81.218 C 267.692 81.381,262.549 84.017,256.363 87.074 C 250.178 90.132,244.854 92.802,244.531 93.006 C 244.209 93.211,243.154 93.751,242.188 94.206 C 241.221 94.661,240.342 95.155,240.234 95.304 C 240.127 95.453,239.460 95.773,238.752 96.015 C 238.045 96.258,236.963 96.814,236.348 97.251 C 235.734 97.689,235.112 98.047,234.966 98.047 C 233.886 98.047,224.648 103.326,223.434 104.637 C 221.908 106.284,220.313 108.569,220.313 109.106 C 220.313 109.433,220.103 109.770,219.847 109.856 C 219.567 109.949,219.325 111.087,219.238 112.720 C 219.159 114.210,218.945 115.781,218.761 116.211 C 218.578 116.641,218.225 120.156,217.978 124.023 C 216.896 140.939,215.695 156.759,215.426 157.644 C 214.850 159.539,215.106 159.563,234.473 159.439 L 244.531 159.375 244.531 158.031 C 244.531 157.292,244.355 156.578,244.141 156.445 C 243.522 156.063,243.686 152.751,244.405 151.122 C 245.724 148.132,249.011 148.338,252.290 151.617 C 254.081 153.408,255.298 155.579,255.712 157.720 C 256.046 159.442,255.804 159.415,269.727 159.289 L 281.836 159.180 281.947 154.527 C 282.109 147.712,280.012 143.921,273.907 139.988 C 272.682 139.199,271.055 138.141,270.292 137.636 C 269.528 137.132,268.784 136.719,268.639 136.719 C 268.494 136.719,267.413 136.104,266.237 135.352 C 265.062 134.600,263.996 133.984,263.869 133.984 C 263.743 133.984,263.427 133.803,263.167 133.581 C 262.312 132.850,257.473 130.078,257.053 130.078 C 256.826 130.078,256.641 129.934,256.641 129.757 C 256.641 129.581,255.278 128.660,253.613 127.712 C 251.948 126.764,249.531 125.335,248.242 124.537 C 245.183 122.643,239.877 119.526,231.641 114.782 C 230.889 114.349,230.010 113.725,229.688 113.395 C 228.238 111.912,232.334 113.239,236.138 115.486 C 238.284 116.753,240.742 118.137,241.602 118.563 C 242.461 118.988,243.252 119.429,243.359 119.543 C 243.575 119.771,246.484 121.361,249.219 122.744 C 250.186 123.233,251.209 123.853,251.493 124.121 C 251.777 124.390,252.189 124.609,252.409 124.609 C 252.629 124.609,253.286 124.949,253.868 125.364 C 254.451 125.779,255.709 126.426,256.663 126.802 C 257.618 127.178,258.498 127.632,258.620 127.811 C 258.840 128.133,259.256 128.374,263.867 130.847 C 265.156 131.538,266.387 132.243,266.602 132.414 C 267.458 133.093,278.384 138.981,279.297 139.255 C 279.834 139.417,280.520 139.747,280.822 139.989 C 281.540 140.566,289.418 140.571,290.662 139.995 C 292.816 138.998,303.214 133.731,306.836 131.802 C 308.984 130.657,312.412 128.879,314.453 127.849 C 316.494 126.819,318.252 125.885,318.359 125.774 C 318.467 125.662,321.162 124.260,324.348 122.658 C 327.535 121.055,330.226 119.609,330.328 119.443 C 330.584 119.029,331.250 119.061,331.250 119.487 C 331.250 119.677,330.591 120.143,329.785 120.521 C 328.979 120.900,328.232 121.315,328.125 121.444 C 328.018 121.574,327.314 122.018,326.563 122.432 C 325.811 122.845,325.107 123.293,325.000 123.427 C 324.893 123.561,323.398 124.489,321.680 125.490 C 319.961 126.491,318.368 127.470,318.140 127.664 C 317.912 127.859,317.077 128.326,316.284 128.702 C 315.492 129.078,314.844 129.542,314.844 129.732 C 314.844 129.922,314.647 130.078,314.407 130.078 C 314.166 130.078,312.444 131.045,310.580 132.227 C 308.716 133.408,307.013 134.375,306.794 134.375 C 306.576 134.375,306.054 134.695,305.635 135.085 C 305.215 135.476,303.336 136.633,301.459 137.656 C 299.583 138.679,298.047 139.678,298.047 139.875 C 298.047 140.073,297.821 140.234,297.545 140.234 C 295.799 140.234,290.193 145.190,288.907 147.870 C 288.500 148.719,287.985 149.766,287.763 150.195 C 287.540 150.625,287.282 152.471,287.188 154.297 C 287.094 156.123,286.829 157.850,286.600 158.135 C 285.859 159.056,287.118 159.363,291.667 159.369 C 296.488 159.376,297.266 159.217,297.266 158.230 C 297.266 156.874,302.009 151.064,303.503 150.590 C 303.940 150.451,304.297 150.162,304.297 149.948 C 304.297 149.012,306.458 149.861,307.312 151.132 C 309.542 154.452,306.877 161.196,302.097 164.327 C 301.401 164.783,300.641 164.859,298.846 164.651 C 296.221 164.346,296.006 164.467,294.727 166.969 C 294.297 167.810,293.770 168.689,293.555 168.923 C 293.340 169.156,292.813 170.048,292.384 170.904 C 291.955 171.760,291.383 172.693,291.114 172.977 C 290.845 173.261,290.625 173.744,290.625 174.051 C 290.625 174.358,290.466 174.609,290.273 174.609 C 290.079 174.609,289.722 175.093,289.479 175.684 C 288.915 177.059,288.101 178.462,287.545 179.017 C 287.306 179.257,287.109 179.755,287.109 180.124 C 287.109 180.493,286.956 180.853,286.768 180.924 C 285.092 181.563,283.212 186.424,282.980 190.718 C 282.850 193.137,282.593 195.645,282.410 196.289 C 282.227 196.934,281.957 200.304,281.811 203.778 L 281.543 210.095 282.551 211.102 C 283.491 212.042,283.801 212.109,287.189 212.100 C 291.842 212.088,293.799 211.301,303.867 205.390 C 304.855 204.810,306.104 204.093,306.641 203.797 C 307.178 203.502,309.814 202.022,312.500 200.509 C 318.706 197.013,320.144 196.211,322.070 195.176 C 322.930 194.714,323.721 194.248,323.828 194.141 C 324.095 193.875,326.364 192.629,328.613 191.514 C 329.634 191.008,330.469 190.461,330.469 190.298 C 330.469 190.134,331.103 189.771,331.879 189.491 C 334.032 188.712,339.751 184.822,340.672 183.508 C 340.968 183.086,341.519 182.378,341.895 181.935 C 342.271 181.493,342.578 180.894,342.578 180.604 C 342.578 180.315,342.711 180.078,342.873 180.078 C 343.311 180.078,344.193 177.401,344.418 175.391 C 344.526 174.424,344.751 173.457,344.916 173.242 C 345.082 173.027,345.339 169.512,345.486 165.430 C 345.634 161.348,345.913 157.480,346.105 156.836 C 346.298 156.191,346.640 152.412,346.865 148.438 C 347.091 144.463,347.431 138.662,347.623 135.547 C 348.677 118.356,348.559 109.766,347.269 109.766 C 347.099 109.766,346.849 109.326,346.715 108.789 C 346.580 108.252,346.297 107.813,346.086 107.813 C 345.876 107.813,345.703 107.625,345.703 107.396 C 345.703 106.333,341.172 102.887,336.914 100.711 C 335.625 100.053,332.690 98.525,330.393 97.316 C 328.095 96.106,324.667 94.326,322.776 93.359 C 320.884 92.393,319.104 91.382,318.820 91.113 C 318.536 90.845,318.077 90.625,317.800 90.625 C 317.523 90.625,316.701 90.223,315.972 89.732 C 315.244 89.241,314.033 88.597,313.281 88.300 C 312.529 88.004,311.650 87.548,311.328 87.287 C 311.006 87.025,310.305 86.677,309.771 86.514 C 309.236 86.350,308.182 85.820,307.427 85.335 C 306.672 84.851,305.396 84.225,304.590 83.945 C 303.784 83.666,303.125 83.322,303.125 83.181 C 303.125 83.041,301.587 82.155,299.707 81.213 C 297.827 80.270,296.230 79.366,296.159 79.203 C 296.087 79.040,295.874 78.906,295.685 78.906 C 295.497 78.906,294.046 78.291,292.462 77.539 L 289.582 76.172 283.756 76.206 L 277.930 76.240 275.000 77.623 M287.228 88.698 C 294.303 90.663,291.131 98.317,283.385 97.969 C 281.874 97.901,280.380 97.625,280.065 97.356 C 279.750 97.087,279.009 96.504,278.418 96.061 C 277.827 95.618,277.344 95.005,277.344 94.698 C 277.344 94.392,277.168 94.141,276.953 94.141 C 275.893 94.141,277.046 91.508,278.756 90.024 C 280.658 88.373,284.112 87.833,287.228 88.698 M256.863 105.918 C 258.961 107.029,260.870 110.547,259.375 110.547 C 259.160 110.547,258.984 110.795,258.984 111.099 C 258.984 111.403,258.103 112.194,257.025 112.857 C 251.984 115.959,243.308 112.534,245.570 108.334 C 247.205 105.298,253.250 104.005,256.863 105.918 M320.102 106.031 C 322.782 106.837,323.828 107.952,323.828 110.001 C 323.828 111.623,323.638 111.957,321.898 113.393 C 318.810 115.940,312.013 114.796,310.026 111.395 L 309.269 110.097 310.397 108.492 C 312.258 105.844,316.178 104.850,320.102 106.031 M288.364 106.468 C 290.658 107.249,293.748 110.547,292.188 110.547 C 291.973 110.547,291.797 110.776,291.797 111.056 C 291.797 114.567,281.796 116.065,278.743 113.012 C 274.942 109.210,282.108 104.336,288.364 106.468 M287.454 123.038 C 288.561 123.248,289.848 123.775,290.315 124.210 C 290.781 124.644,291.306 125.000,291.480 125.000 C 291.654 125.000,291.797 125.264,291.797 125.586 C 291.797 125.908,291.973 126.172,292.188 126.172 C 294.138 126.172,290.949 130.658,288.675 131.113 C 288.020 131.244,287.389 131.504,287.274 131.691 C 286.848 132.379,283.718 132.021,281.716 131.055 C 280.602 130.518,279.559 130.077,279.396 130.076 C 279.023 130.073,277.734 127.833,277.734 127.187 C 277.734 126.565,279.820 124.219,280.373 124.219 C 280.605 124.219,280.853 124.041,280.926 123.824 C 280.998 123.607,281.848 123.275,282.814 123.086 C 285.243 122.610,285.200 122.611,287.454 123.038 M333.147 134.414 C 334.799 134.990,335.565 141.560,334.094 142.525 C 333.885 142.662,333.606 143.218,333.473 143.760 C 332.946 145.918,328.450 150.000,326.600 150.000 C 326.183 150.000,325.280 149.528,324.595 148.951 L 323.349 147.903 323.527 144.557 C 323.694 141.407,324.603 138.682,325.488 138.674 C 325.649 138.673,325.781 138.471,325.781 138.226 C 325.781 137.238,328.699 135.003,330.837 134.355 C 331.386 134.188,331.854 134.036,331.875 134.018 C 331.897 133.999,332.469 134.178,333.147 134.414 M126.987 164.257 C 121.129 165.711,117.971 167.483,114.063 171.506 C 111.524 174.120,110.547 175.375,110.547 176.023 C 110.547 176.284,110.403 176.556,110.228 176.628 C 109.672 176.854,107.422 181.855,107.422 182.863 C 107.422 183.394,107.256 183.995,107.054 184.199 C 105.285 185.983,105.253 216.346,107.018 218.112 C 107.240 218.334,107.422 218.937,107.422 219.453 C 107.422 219.968,107.705 221.032,108.050 221.816 C 109.366 224.803,109.971 225.981,110.254 226.107 C 110.415 226.178,110.547 226.450,110.547 226.711 C 110.547 228.212,116.779 234.228,120.172 236.002 C 130.330 241.314,146.415 240.410,155.078 234.042 C 157.036 232.602,160.547 228.896,160.547 228.267 C 160.547 227.974,160.706 227.734,160.900 227.734 C 161.349 227.734,163.672 223.647,163.672 222.857 C 163.672 222.532,163.828 222.266,164.019 222.266 C 164.210 222.266,164.490 221.608,164.640 220.804 C 164.791 220.000,165.031 219.165,165.172 218.948 C 166.886 216.329,166.958 186.352,165.256 184.184 C 165.085 183.967,164.823 183.108,164.673 182.276 C 164.523 181.444,164.247 180.477,164.060 180.128 C 163.874 179.778,163.327 178.657,162.845 177.635 C 162.364 176.614,161.649 175.435,161.258 175.015 C 160.867 174.595,160.547 174.091,160.547 173.894 C 160.547 171.936,150.747 165.376,146.484 164.482 C 145.518 164.279,144.023 163.930,143.164 163.706 C 140.187 162.932,131.074 163.242,126.987 164.257 M329.439 164.639 C 332.730 167.131,331.073 173.817,326.159 177.877 C 323.963 179.690,320.313 178.494,320.313 175.961 C 320.313 175.518,320.111 174.955,319.865 174.709 C 319.538 174.382,319.532 173.969,319.841 173.166 C 320.073 172.563,320.377 171.499,320.514 170.801 C 320.652 170.103,320.927 169.531,321.125 169.531 C 321.323 169.531,321.484 169.303,321.484 169.024 C 321.484 166.616,327.599 163.245,329.439 164.639 M217.773 164.826 L 208.789 165.039 208.837 166.406 C 209.049 172.422,209.006 197.305,208.783 197.665 C 208.344 198.376,195.313 173.502,195.313 171.952 C 195.313 171.731,195.180 171.491,195.017 171.419 C 194.855 171.348,194.020 169.840,193.162 168.070 L 191.602 164.850 181.348 164.847 L 171.094 164.844 171.059 183.496 C 171.041 193.755,171.017 202.676,171.007 203.320 C 170.998 203.965,171.013 212.095,171.042 221.387 L 171.094 238.281 180.566 238.275 C 185.776 238.272,190.257 238.131,190.523 237.962 C 190.893 237.727,191.031 233.664,191.109 220.683 C 191.194 206.487,191.293 203.903,191.710 204.883 C 191.985 205.527,192.938 207.461,193.827 209.180 C 194.716 210.898,196.949 215.293,198.788 218.945 C 200.627 222.598,202.244 225.674,202.381 225.781 C 202.517 225.889,202.764 226.416,202.930 226.953 C 203.095 227.490,203.338 228.018,203.471 228.125 C 203.603 228.232,204.316 229.595,205.056 231.152 C 205.796 232.710,206.543 233.984,206.716 233.984 C 206.889 233.984,207.031 234.243,207.031 234.558 C 207.031 234.874,207.401 235.841,207.852 236.707 L 208.673 238.281 218.367 238.281 C 223.699 238.281,228.339 238.175,228.679 238.044 C 229.511 237.725,229.640 164.847,228.809 164.838 C 228.540 164.835,227.969 164.783,227.539 164.723 C 227.109 164.662,222.715 164.709,217.773 164.826 M234.948 164.865 C 234.665 165.323,234.622 237.342,234.904 237.798 C 235.219 238.308,253.574 238.534,254.851 238.044 C 255.397 237.834,255.469 236.287,255.471 224.665 C 255.473 212.772,255.529 211.630,256.057 212.642 C 257.096 214.634,260.325 219.723,260.636 219.857 C 260.802 219.928,260.938 220.223,260.938 220.512 C 260.938 220.801,261.157 221.278,261.426 221.571 C 262.139 222.348,262.880 223.534,263.143 224.316 C 263.269 224.692,263.509 225.000,263.675 225.000 C 263.842 225.000,264.088 225.439,264.223 225.977 C 264.358 226.514,264.640 226.953,264.851 226.953 C 265.062 226.953,265.234 227.204,265.234 227.511 C 265.234 227.818,265.478 228.313,265.776 228.611 C 266.075 228.909,266.903 230.196,267.618 231.471 C 268.332 232.746,269.143 234.021,269.419 234.305 C 269.696 234.589,269.922 235.073,269.922 235.379 C 269.922 235.686,270.098 235.938,270.313 235.938 C 270.527 235.938,270.703 236.189,270.703 236.496 C 270.703 238.173,271.414 238.281,282.450 238.281 L 292.969 238.281 292.969 236.523 C 292.969 235.557,292.793 234.766,292.578 234.766 C 292.363 234.766,292.188 234.515,292.188 234.208 C 292.188 233.901,291.959 233.417,291.680 233.133 C 291.402 232.849,289.022 229.102,286.392 224.805 C 283.762 220.508,281.397 216.648,281.137 216.227 C 280.877 215.807,280.444 215.223,280.176 214.930 C 279.907 214.637,279.688 214.146,279.688 213.839 C 279.688 213.532,279.529 213.281,279.335 213.281 C 279.141 213.281,278.789 212.798,278.553 212.207 C 278.316 211.616,277.774 210.605,277.347 209.961 C 276.921 209.316,276.273 208.218,275.909 207.520 C 275.544 206.821,275.122 206.250,274.970 206.250 C 274.818 206.250,274.584 205.811,274.449 205.273 C 274.314 204.736,274.031 204.297,273.821 204.297 C 273.610 204.297,273.438 204.046,273.438 203.739 C 273.438 203.432,273.218 202.941,272.949 202.648 C 272.395 202.044,271.602 200.847,271.224 200.045 C 271.084 199.747,271.178 199.219,271.434 198.873 C 271.689 198.526,272.001 197.935,272.127 197.559 C 272.253 197.183,272.493 196.875,272.659 196.875 C 272.826 196.875,273.072 196.436,273.207 195.898 C 273.342 195.361,273.625 194.922,273.836 194.922 C 274.046 194.922,274.219 194.671,274.219 194.364 C 274.219 194.057,274.438 193.566,274.707 193.273 C 275.282 192.646,276.068 191.449,276.445 190.625 C 276.593 190.303,276.944 189.807,277.224 189.523 C 277.505 189.239,277.734 188.756,277.734 188.449 C 277.734 188.142,277.907 187.891,278.118 187.891 C 278.328 187.891,278.611 187.451,278.746 186.914 C 278.881 186.377,279.136 185.938,279.313 185.938 C 279.490 185.938,279.758 185.542,279.909 185.059 C 280.060 184.575,280.297 184.092,280.437 183.984 C 280.932 183.602,283.203 179.806,283.203 179.360 C 283.203 179.111,283.379 178.906,283.594 178.906 C 283.809 178.906,283.984 178.655,283.984 178.348 C 283.984 178.041,284.225 177.550,284.519 177.256 C 284.813 176.962,285.176 176.334,285.326 175.861 C 285.477 175.387,285.763 175.000,285.964 175.000 C 286.164 175.000,286.328 174.833,286.328 174.629 C 286.328 174.425,286.855 173.477,287.500 172.522 C 288.145 171.567,288.672 170.591,288.672 170.354 C 288.672 170.116,288.816 169.922,288.992 169.922 C 289.512 169.922,291.377 166.003,291.145 165.398 C 290.968 164.938,289.122 164.844,280.298 164.844 L 269.663 164.844 269.113 165.918 C 268.810 166.509,267.814 168.245,266.898 169.776 C 265.983 171.307,265.234 172.757,265.234 172.999 C 265.234 173.240,265.078 173.438,264.886 173.438 C 264.695 173.438,264.428 173.877,264.293 174.414 C 264.158 174.951,263.875 175.391,263.664 175.391 C 263.454 175.391,263.281 175.560,263.281 175.767 C 263.281 175.975,262.490 177.447,261.523 179.040 C 260.557 180.632,259.766 182.132,259.766 182.374 C 259.766 182.615,259.593 182.813,259.382 182.813 C 259.172 182.813,258.889 183.252,258.754 183.789 C 258.619 184.326,258.352 184.766,258.161 184.766 C 257.969 184.766,257.813 184.942,257.813 185.157 C 257.813 185.373,257.288 186.384,256.648 187.403 L 255.484 189.258 255.476 177.234 C 255.470 167.969,255.357 165.172,254.980 165.044 C 254.231 164.790,235.099 164.619,234.948 164.865 M48.143 201.444 L 48.242 238.086 63.867 238.207 C 81.306 238.342,84.576 238.095,90.039 236.229 C 96.297 234.092,101.652 228.968,102.245 224.550 C 102.357 223.713,102.601 222.934,102.787 222.819 C 103.230 222.545,103.228 211.438,102.785 211.164 C 102.598 211.048,102.336 210.409,102.202 209.743 C 101.565 206.554,97.270 201.950,93.807 200.743 L 92.527 200.296 93.755 199.549 C 96.188 198.070,99.503 193.537,99.888 191.163 C 100.008 190.427,100.257 189.731,100.443 189.616 C 100.922 189.320,100.872 179.399,100.391 179.102 C 100.176 178.969,100.000 178.493,100.000 178.043 C 100.000 175.947,94.898 168.750,93.413 168.750 C 93.199 168.750,92.765 168.491,92.448 168.174 C 92.131 167.857,90.405 167.028,88.612 166.331 L 85.352 165.066 66.697 164.934 L 48.043 164.802 48.143 201.444 M305.346 179.378 C 306.273 180.404,306.269 184.448,305.339 186.133 C 304.983 186.777,304.691 187.524,304.690 187.793 C 304.689 188.062,304.556 188.282,304.395 188.284 C 304.233 188.285,303.818 188.785,303.471 189.396 C 301.719 192.476,298.233 193.668,296.476 191.788 C 295.280 190.507,294.656 185.156,295.703 185.156 C 295.918 185.156,296.094 184.928,296.094 184.650 C 296.094 183.366,300.395 179.031,302.120 178.576 C 303.628 178.179,304.446 178.382,305.346 179.378 M76.982 181.255 C 79.210 181.678,81.250 183.193,81.250 184.425 C 81.250 184.802,81.426 185.219,81.641 185.352 C 81.855 185.484,82.031 186.187,82.031 186.914 C 82.031 187.641,81.855 188.344,81.641 188.477 C 81.426 188.609,81.250 188.983,81.250 189.307 C 81.250 191.959,77.935 193.359,71.660 193.359 L 67.969 193.359 67.969 187.109 L 67.969 180.859 71.431 180.859 C 73.335 180.859,75.833 181.038,76.982 181.255 M139.647 181.297 C 141.596 181.838,144.439 184.599,144.775 186.276 C 144.909 186.949,145.173 187.500,145.361 187.500 C 145.550 187.500,145.703 193.703,145.703 201.367 C 145.703 209.031,145.550 215.234,145.361 215.234 C 145.173 215.234,144.914 215.762,144.785 216.406 C 143.483 222.916,132.040 223.822,127.930 217.741 L 126.367 215.430 126.367 201.536 L 126.367 187.642 127.327 185.775 C 129.497 181.555,134.295 179.811,139.647 181.297 M80.345 209.800 C 81.273 210.249,82.031 210.764,82.031 210.944 C 82.031 211.125,82.306 211.547,82.642 211.883 C 83.742 212.983,83.471 217.348,82.199 219.016 C 80.609 221.101,79.056 221.577,73.145 221.790 L 67.969 221.977 67.969 215.481 L 67.969 208.984 73.314 208.984 C 77.937 208.984,78.887 209.095,80.345 209.800 M191.282 244.238 C 190.665 244.692,190.625 247.120,190.719 278.906 L 190.820 313.086 205.768 313.188 C 221.972 313.299,226.800 312.876,230.967 310.977 C 231.958 310.526,232.879 310.156,233.014 310.156 C 233.538 310.156,236.976 307.603,238.086 306.389 C 239.919 304.385,240.119 304.104,240.435 303.095 C 240.597 302.574,240.849 302.061,240.995 301.953 C 242.452 300.878,243.190 288.383,241.930 286.133 C 241.690 285.703,241.168 284.648,240.771 283.789 C 239.876 281.853,236.599 278.528,234.695 277.624 L 233.270 276.948 235.560 274.659 C 236.819 273.399,237.966 271.906,238.108 271.341 C 238.250 270.775,238.521 270.313,238.710 270.313 C 238.899 270.313,239.166 269.605,239.305 268.741 C 239.443 267.877,239.708 267.076,239.895 266.960 C 240.355 266.676,240.329 258.365,239.865 257.514 C 239.662 257.141,239.390 256.177,239.261 255.371 C 239.133 254.565,238.859 253.906,238.654 253.906 C 238.449 253.906,238.281 253.669,238.281 253.380 C 238.281 252.889,237.697 252.090,235.952 250.195 C 232.814 246.790,228.700 244.964,222.266 244.122 C 218.009 243.566,192.065 243.663,191.282 244.238 M225.486 245.287 C 239.950 248.986,244.428 267.536,232.803 275.593 L 231.207 276.698 233.274 277.681 C 244.864 283.189,244.442 302.546,232.593 308.861 C 226.957 311.865,221.095 312.589,203.711 312.423 L 191.211 312.305 191.110 278.906 C 191.055 260.537,191.093 245.288,191.195 245.020 C 191.544 244.106,221.793 244.342,225.486 245.287 M299.479 245.573 C 298.838 246.214,299.649 246.282,306.640 246.175 L 314.063 246.061 314.063 253.304 L 314.063 260.547 319.063 260.547 C 325.317 260.547,325.000 260.231,325.000 266.452 C 325.000 273.207,325.508 272.656,319.268 272.656 L 314.010 272.656 314.134 284.082 C 314.296 298.993,314.178 298.744,321.267 299.175 L 325.195 299.414 325.303 305.315 C 325.431 312.361,325.664 312.012,320.505 312.539 C 309.018 313.715,301.915 310.373,299.719 302.762 L 299.204 300.977 299.379 302.947 C 299.774 307.403,303.222 311.068,308.636 312.787 C 311.184 313.596,323.291 313.732,325.098 312.971 L 326.172 312.519 326.172 305.917 C 326.172 298.112,326.453 298.559,321.427 298.378 C 315.347 298.159,315.234 297.887,315.234 283.421 L 315.234 273.438 320.517 273.438 L 325.800 273.438 325.693 266.895 L 325.586 260.352 320.410 260.243 L 315.234 260.134 315.234 253.192 C 315.234 248.313,315.095 246.111,314.766 245.781 C 314.259 245.275,299.972 245.080,299.479 245.573 M298.935 248.438 C 298.935 249.404,299.011 249.800,299.104 249.316 C 299.197 248.833,299.197 248.042,299.104 247.559 C 299.011 247.075,298.935 247.471,298.935 248.438 M207.031 264.601 L 207.031 271.484 212.402 271.400 L 217.773 271.315 212.978 271.192 L 208.183 271.070 208.291 264.929 L 208.398 258.789 213.562 258.863 C 219.493 258.947,220.893 259.388,222.048 261.533 C 223.721 264.639,222.624 268.509,219.609 270.137 C 218.098 270.953,217.981 271.086,218.945 270.889 C 224.211 269.815,225.121 261.633,220.290 258.804 C 219.187 258.158,218.048 258.014,213.007 257.878 L 207.031 257.718 207.031 264.601 M264.201 259.781 C 262.134 260.190,256.641 262.133,256.641 262.455 C 256.641 262.590,256.119 262.931,255.482 263.213 C 254.138 263.808,248.828 269.349,248.828 270.157 C 248.828 270.457,248.666 270.703,248.469 270.703 C 248.271 270.703,247.993 271.230,247.852 271.875 C 247.710 272.520,247.469 273.047,247.315 273.047 C 247.162 273.047,246.716 274.058,246.325 275.293 C 245.933 276.528,245.413 277.961,245.169 278.477 C 244.887 279.074,244.727 282.136,244.727 286.913 C 244.727 291.690,244.887 294.753,245.169 295.351 C 245.413 295.867,245.933 297.300,246.325 298.535 C 246.716 299.771,247.157 300.781,247.304 300.781 C 247.451 300.781,247.686 301.236,247.825 301.791 C 248.107 302.916,248.085 302.884,250.663 305.801 C 259.141 315.396,276.238 316.632,286.906 308.422 C 292.026 304.482,292.044 304.575,284.947 298.145 C 282.668 296.079,279.403 296.394,277.734 298.841 C 275.686 301.843,263.281 299.934,263.281 296.615 C 263.281 296.328,263.113 296.094,262.908 296.094 C 262.703 296.094,262.420 295.477,262.278 294.722 C 262.137 293.968,261.865 293.254,261.674 293.137 C 259.756 291.951,261.312 291.806,277.051 291.704 L 292.773 291.602 292.886 286.523 C 293.030 279.988,292.550 277.812,289.630 271.774 C 287.320 266.996,280.553 260.938,277.526 260.938 C 277.082 260.938,276.552 260.772,276.348 260.570 C 275.366 259.596,267.664 259.096,264.201 259.781 M295.117 260.156 L 291.211 260.352 291.099 266.016 C 290.942 273.932,290.687 273.438,294.929 273.438 L 298.438 273.438 298.438 286.696 C 298.438 293.988,298.569 300.035,298.730 300.135 C 298.892 300.235,299.023 294.093,299.023 286.487 L 299.023 272.657 295.452 272.657 C 291.149 272.656,291.406 273.052,291.406 266.422 C 291.406 260.418,291.251 260.614,296.115 260.465 C 298.144 260.403,299.629 260.264,299.414 260.156 C 299.199 260.049,297.266 260.049,295.117 260.156 M274.297 260.588 C 284.685 262.754,291.712 272.941,291.919 286.133 L 291.992 290.820 276.044 290.922 L 260.096 291.024 260.364 292.290 C 262.183 300.881,271.185 303.792,279.260 298.400 C 282.104 296.501,281.626 296.382,285.698 300.000 C 290.286 304.077,290.272 303.970,286.598 306.923 C 278.346 313.556,267.144 314.868,257.813 310.294 C 238.491 300.822,241.558 266.322,262.217 260.757 C 264.693 260.090,271.456 259.996,274.297 260.588 M265.430 272.223 C 262.768 273.451,260.915 276.270,260.319 279.997 L 260.056 281.641 268.895 281.641 C 273.757 281.641,277.734 281.561,277.734 281.465 C 277.734 274.402,271.254 269.534,265.430 272.223 M272.211 273.215 C 274.384 274.316,275.871 276.106,276.451 278.320 C 276.676 279.180,276.991 280.199,277.151 280.585 C 277.426 281.249,277.001 281.283,269.385 281.217 L 261.328 281.147 261.328 280.245 C 261.328 279.749,261.484 279.247,261.674 279.129 C 261.865 279.011,262.137 278.298,262.278 277.543 C 262.420 276.789,262.675 276.172,262.846 276.172 C 263.016 276.172,263.361 275.722,263.611 275.172 C 264.706 272.771,269.280 271.729,272.211 273.215 M207.193 284.342 C 207.104 284.432,207.031 287.749,207.031 291.713 L 207.031 298.920 213.410 298.766 C 219.272 298.624,219.941 298.533,221.675 297.641 C 226.226 295.299,226.573 287.904,222.252 285.365 C 220.996 284.627,207.799 283.731,207.193 284.342 M221.747 286.044 C 225.189 287.885,225.766 293.275,222.852 296.358 C 221.664 297.614,219.466 298.080,213.574 298.324 L 208.203 298.547 208.203 292.112 C 208.203 288.573,208.335 285.543,208.496 285.379 C 209.098 284.768,220.422 285.336,221.747 286.044 " stroke="none" fill="#fb7213" fill-rule="evenodd"/></g></svg>
